<?xml version="1.0" encoding="UTF-8" standalone="no"?>
<svg
   width="481mm"
   height="501.9999999999999mm"
   viewBox="-226 -282.99999999999994 481 501.9999999999999"
   version="1.1"
   id="svg1"
   sodipodi:docname="ATM-3.svg"
   inkscape:version="1.3.2 (091e20e, 2023-11-25, custom)"
   xmlns:inkscape="http://www.inkscape.org/namespaces/inkscape"
   xmlns:sodipodi="http://sodipodi.sourceforge.net/DTD/sodipodi-0.dtd"
   xmlns="http://www.w3.org/2000/svg"
   xmlns:svg="http://www.w3.org/2000/svg">
  <defs
     id="defs1" />
  <sodipodi:namedview
     id="namedview1"
     pagecolor="#ffffff"
     bordercolor="#000000"
     borderopacity="0.25"
     inkscape:showpageshadow="2"
     inkscape:pageopacity="0.0"
     inkscape:pagecheckerboard="0"
     inkscape:deskcolor="#d1d1d1"
     inkscape:document-units="mm"
     inkscape:zoom="0.41479499"
     inkscape:cx="870.30946"
     inkscape:cy="758.20589"
     inkscape:window-width="1920"
     inkscape:window-height="1001"
     inkscape:window-x="-9"
     inkscape:window-y="-9"
     inkscape:window-maximized="1"
     inkscape:current-layer="svg1" />
  <title
     id="title1">svgOutput</title>
  <desc
     id="desc1">made with tinkercad</desc>
  <path
     d="M 225.67599487304688 217.99999999999994 L 225.67599487304688 215.00199890136713 L 225.67599487304688 213.69799804687494 L 198.2740020751953 213.69799804687494 L 198.2740020751953 215.00199890136713 L 198.2740020751953 217.99999999999994 L 178.2689971923828 217.99999999999994 L 178.2689971923828 215.00199890136713 L 178.2689971923828 213.69799804687494 L 153.27999877929688 213.69799804687494 L 153.27999877929688 215.00199890136713 L 153.27999877929688 217.99999999999994 L 133.27499389648438 217.99999999999994 L 133.27499389648438 215.00199890136713 L 133.27499389648438 213.69799804687494 L 111.49199676513672 213.69799804687494 L 111.49199676513672 215.00199890136713 L 111.49199676513672 217.99999999999994 L 91.48699951171875 217.99999999999994 L 91.48699951171875 215.00199890136713 L 91.48699951171875 213.69799804687494 L 64.1989974975586 213.69799804687494 L 64.1989974975586 215.00199890136713 L 64.1989974975586 217.99999999999994 L 44.194000244140625 217.99999999999994 L 44.194000244140625 215.00199890136713 L 44.194000244140625 213.69799804687494 L 19.05299949645996 213.69799804687494 L 19.05299949645996 215.00199890136713 L 19.05299949645996 217.99999999999994 L -0.9520000219345093 217.99999999999994 L -0.9520000219345093 215.00199890136713 L -0.9520000219345093 213.69799804687494 L -31 213.69799804687494 L -31 164.2435607910156 L -31 124.2385559082031 L -31 124.2385559082031 L -31 115.64800262451169 L -31 -174.35699462890622 L -31 -182.75643920898435 L -31 -222.76144409179682 L -31 -222.76144409179682 L -31 -277.9979858398437 L -0.9520000219345093 -277.9979858398437 L -0.9520000219345093 -281.99999999999994 L 19.05299949645996 -281.99999999999994 L 19.05299949645996 -277.9979858398437 L 44.194000244140625 -277.9979858398437 L 44.194000244140625 -281.99999999999994 L 64.1989974975586 -281.99999999999994 L 64.1989974975586 -277.9979858398437 L 91.48699951171875 -277.9979858398437 L 91.48699951171875 -281.99999999999994 L 111.49199676513672 -281.99999999999994 L 111.49199676513672 -277.9979858398437 L 133.27499389648438 -277.9979858398437 L 133.27499389648438 -281.99999999999994 L 153.27999877929688 -281.99999999999994 L 153.27999877929688 -277.9979858398437 L 178.2689971923828 -277.9979858398437 L 178.2689971923828 -281.99999999999994 L 198.2740020751953 -281.99999999999994 L 198.2740020751953 -277.9979858398437 L 225.67599487304688 -277.9979858398437 L 225.67599487304688 -281.99999999999994 L 245.68099975585938 -281.99999999999994 L 245.68099975585938 -277.9979858398437 L 254 -277.9979858398437 L 254 -222.7642974853515 L 254 -182.75929260253903 L 254 -182.75929260253903 L 254 -174.35699462890622 L 254 115.64800262451169 L 254 124.23571014404294 L 254 164.2407073974609 L 254 164.2407073974609 L 254 213.69799804687494 L 245.68099975585938 213.69799804687494 L 245.68099975585938 215.00199890136713 L 245.68099975585938 217.99999999999994 L 225.67599487304688 217.99999999999994 M 124.94195556640625 145.44735717773435 L 124.94195556640625 124.23699951171872 L 124.94142150878906 124.23699951171872 L 76.45330810546875 124.23748779296872 L 24.936500549316406 124.23799896240232 L 24.9375 164.24299621582028 L 73.47139739990234 164.24250793457028 L 124.94242095947266 164.24200439453122 L 124.94195556640625 145.44735717773435 M -45 210.99899291992182 L -125 210.99899291992182 L -225 210.99899291992182 L -225 180.20399475097653 L -225 101.99900054931638 L -225 -72.99600219726561 L -225 -93.00099945068358 L -225 -112.9960021972656 L -225 -133.0010070800781 L -225 -156.9960021972656 L -225 -177.0010070800781 L -225 -201.99600219726557 L -225 -222.00100708007807 L -225 -244.99600219726557 L -225 -265.00100708007807 L -225 -280.6960144042968 L -125 -280.6960144042968 L -117 -280.6960144042968 L -117 -265.00100708007807 L -117 -244.99600219726557 L -117 -222.00100708007807 L -117 -201.99600219726557 L -117 -177.0010070800781 L -117 -156.9960021972656 L -117 -133.0010070800781 L -117 -112.9960021972656 L -117 -93.00099945068358 L -117 -78.9980010986328 L -45 -78.9980010986328 L -45 -72.99600219726561 L -45 101.99900054931638 L -45 180.20399475097653 L -45 210.99899291992182 M 124.9450912475586 -182.75799560546872 L 124.944091796875 -222.7630004882812 L 91.21674346923828 -222.76266479492182 L 24.93899917602539 -222.76199340820307 L 24.93899917602539 -208.47123718261713 L 24.93964195251465 -182.75700378417966 L 59.527130126953125 -182.75733947753903 L 124.9450912475586 -182.75799560546872 M 235.70550537109375 115.64800262451169 L 235.70550537109375 -174.35699462890622 L 20.699548721313477 -174.35699462890622 L 20.699548721313477 115.64800262451169 L 235.70550537109375 115.64800262451169 M -124.99800109863281 -93.00099945068358 L -125 -93.00099945068358 L -129.0030059814453 -93.00099945068358 L -129.0030059814453 -72.99600219726561 L -125 -72.99600219726561 L -124.99800109863281 -72.99600219726561 L -124.99800109863281 -78.9980010986328 L -124.99800109863281 -93.00099945068358 M -124.99800109863281 -133.0010070800781 L -125 -133.0010070800781 L -129.0030059814453 -133.0010070800781 L -129.0030059814453 -112.9960021972656 L -125 -112.9960021972656 L -124.99800109863281 -112.9960021972656 L -124.99800109863281 -133.0010070800781 M -124.99800109863281 -177.0010070800781 L -125 -177.0010070800781 L -129.0030059814453 -177.0010070800781 L -129.0030059814453 -156.9960021972656 L -125 -156.9960021972656 L -124.99800109863281 -156.9960021972656 L -124.99800109863281 -177.0010070800781 M -124.99800109863281 -222.00100708007807 L -125 -222.00100708007807 L -129.0030059814453 -222.00100708007807 L -129.0030059814453 -201.99600219726557 L -125 -201.99600219726557 L -124.99800109863281 -201.99600219726557 L -124.99800109863281 -222.00100708007807 M -124.99800109863281 -265.00100708007807 L -125 -265.00100708007807 L -129.0030059814453 -265.00100708007807 L -129.0030059814453 -244.99600219726557 L -125 -244.99600219726557 L -124.99800109863281 -244.99600219726557 L -124.99800109863281 -265.00100708007807 M -108.5979995727539 101.99900054931638 L -125 101.99900054931638 L -135.4029998779297 101.99900054931638 L -135.4029998779297 180.20399475097653 L -125 180.20399475097653 L -108.5979995727539 180.20399475097653 L -108.5979995727539 101.99900054931638 M 24.93899917602539 -222.76199340820307 L 24.93899917602539 -222.76199340820307 z"
     fill="none"
     stroke="rgb(255,0,0)"
     stroke-width="0.001mm"
     id="path1"
     style="stroke:#ff0000;stroke-opacity:1;stroke-width:0.25;stroke-dasharray:none" />
</svg>
