<?xml version="1.0" encoding="UTF-8" standalone="no"?>
<svg
   width="716mm"
   height="401.9999999999999mm"
   viewBox="-361 -171.99999999999997 716 401.9999999999999"
   version="1.1"
   id="svg1"
   sodipodi:docname="ATM-1.svg"
   inkscape:version="1.3.2 (091e20e, 2023-11-25, custom)"
   xmlns:inkscape="http://www.inkscape.org/namespaces/inkscape"
   xmlns:sodipodi="http://sodipodi.sourceforge.net/DTD/sodipodi-0.dtd"
   xmlns="http://www.w3.org/2000/svg"
   xmlns:svg="http://www.w3.org/2000/svg">
  <defs
     id="defs1" />
  <sodipodi:namedview
     id="namedview1"
     pagecolor="#ffffff"
     bordercolor="#000000"
     borderopacity="0.25"
     inkscape:showpageshadow="2"
     inkscape:pageopacity="0.0"
     inkscape:pagecheckerboard="0"
     inkscape:deskcolor="#d1d1d1"
     inkscape:document-units="mm"
     inkscape:zoom="0.46301833"
     inkscape:cx="1628.4453"
     inkscape:cy="664.12058"
     inkscape:window-width="1920"
     inkscape:window-height="1001"
     inkscape:window-x="-9"
     inkscape:window-y="-9"
     inkscape:window-maximized="1"
     inkscape:current-layer="svg1" />
  <title
     id="title1">svgOutput</title>
  <desc
     id="desc1">made with tinkercad</desc>
  <path
     d="M -360 228.99999999999994 L -360 226.99999999999994 L -360 225.99999999999994 L -360 224.99999999999994 L -360 188.99999999999997 L -360 184.99999999999997 L -360 148.99999999999997 L -360 144.99999999999997 L -360 108.99999999999997 L -360 107.99999999999997 L -360 106.99999999999997 L -360 51.77515411376952 L -360 30.174060821533196 L -360 30.01305961608886 L -360 0.6445921659469604 L -360 -20.954576492309567 L -360 -21.11557579040527 L -360 -47.88214111328124 L -360 -69.47946166992186 L -360 -69.6404571533203 L -360 -170.99999999999997 L -109.06920623779297 -170.99999999999997 L -108.67062377929688 -170.99999999999997 L -55.68135070800781 -170.99999999999997 L -55.28535079956055 -170.99999999999997 L 11.06143856048584 -170.99999999999997 L 11.4600191116333 -170.99999999999997 L 64.55963897705078 -170.99999999999997 L 64.8175048828125 -170.99999999999997 L 137.63807678222656 -170.99999999999997 L 138.03665161132812 -170.99999999999997 L 149 -170.99999999999997 L 149 -153.96899414062497 L 149 -153.8827972412109 L 149 -120.99999999999997 L 149 -108.01985168457028 L 149 -55.84961700439452 L 149 15.768533706665036 L 149 68.05516052246092 L 149 81.99999999999999 L 149 101.99999999999997 L 149 106.99999999999997 L 149 107.99999999999997 L 149 108.99999999999997 L 149 144.99999999999997 L 149 148.99999999999997 L 149 184.99999999999997 L 149 188.99999999999997 L 149 224.99999999999994 L 149 225.99999999999994 L 149 226.99999999999994 L 149 228.99999999999994 L -360 228.99999999999994 M 155 226.99999999999994 L 155 225.99999999999994 L 155 224.99999999999994 L 155 188.99999999999997 L 155 184.99999999999997 L 155 148.99999999999997 L 155 144.99999999999997 L 155 108.99999999999997 L 155 107.99999999999997 L 155 106.99999999999997 L 155.32000732421875 106.99999999999997 L 315.32000732421875 106.99999999999997 L 315.32000732421875 107.99999999999997 L 315.32000732421875 108.99999999999997 L 314.9809875488281 108.99999999999997 L 314.9809875488281 144.99999999999997 L 315.32000732421875 144.99999999999997 L 315.32000732421875 148.99999999999997 L 314.9809875488281 148.99999999999997 L 314.9809875488281 184.99999999999997 L 315.32000732421875 184.99999999999997 L 315.32000732421875 188.99999999999997 L 314.9809875488281 188.99999999999997 L 314.9809875488281 224.99999999999994 L 315.32000732421875 224.99999999999994 L 315.32000732421875 225.99999999999994 L 315.32000732421875 226.99999999999994 L 155.32000732421875 226.99999999999994 L 155 226.99999999999994 M 292 -66.99999999999999 L 292 -101.99999999999997 L 334 -101.99999999999997 L 334 -106.99999999999997 L 252 -106.99999999999997 L 252 -101.99999999999997 L 252 -66.99999999999999 L 252 -39.49999999999999 L 252 -4.499999999999999 L 252 21.999999999999996 L 252 56.999999999999986 L 252 81.99999999999999 L 334 81.99999999999999 L 334 56.999999999999986 L 292 56.999999999999986 L 292 21.999999999999996 L 334 21.999999999999996 L 334 -4.499999999999999 L 292 -4.499999999999999 L 292 -39.49999999999999 L 334 -39.49999999999999 L 334 -66.99999999999999 L 292 -66.99999999999999 M 294.4840087890625 -120.99999999999997 L 294.4840087890625 -116.84799957275388 L 315.03240966796875 -116.84799957275388 L 322.4800109863281 -116.84799957275388 L 322.4800109863281 -120.99999999999997 L 336.6239929199219 -120.99999999999997 L 342.4849853515625 -120.99999999999997 L 342.4849853515625 -116.84799957275388 L 354 -116.84799957275388 L 354 -106.99999999999997 L 354 81.99999999999999 L 354 101.99999999999997 L 157.0030059814453 101.99999999999997 L 157.0030059814453 90.70200347900389 L 153 90.70200347900389 L 153 81.99999999999999 L 153 70.69699859619139 L 157.0030059814453 70.69699859619139 L 157.0030059814453 50.701999664306626 L 153 50.701999664306626 L 153 30.697000503540032 L 157.0030059814453 30.697000503540032 L 157.0030059814453 6.701000213623045 L 153 6.701000213623045 L 153 -13.303999900817868 L 157.0030059814453 -13.303999900817868 L 157.0030059814453 -38.298999786376946 L 153 -38.298999786376946 L 153 -58.30400085449217 L 157.0030059814453 -58.30400085449217 L 157.0030059814453 -81.3000030517578 L 153 -81.3000030517578 L 153 -101.30500030517575 L 157.0030059814453 -101.30500030517575 L 157.0030059814453 -116.84799957275388 L 169.47799682617188 -116.84799957275388 L 169.47799682617188 -120.99999999999997 L 189.48300170898438 -120.99999999999997 L 189.48300170898438 -116.84799957275388 L 215.3879852294922 -116.84799957275388 L 220.47799682617188 -116.84799957275388 L 220.47799682617188 -120.99999999999997 L 236.95437622070312 -120.99999999999997 L 240.48300170898438 -120.99999999999997 L 240.48300170898438 -116.84799957275388 L 252 -116.84799957275388 L 263.91571044921875 -116.84799957275388 L 274.47900390625 -116.84799957275388 L 274.47900390625 -120.99999999999997 L 285.492431640625 -120.99999999999997 L 294.4840087890625 -120.99999999999997 M -159.55258178710938 -129.03153991699216 L -159.4969940185547 -129.05400085449216 L -166.9360809326172 -147.4645843505859 L -166.99200439453125 -147.60299682617185 L -170.7030029296875 -146.10400390624997 L -170.64706420898438 -145.96559143066403 L -170.7030029296875 -145.94299316406247 L -163.20700073242188 -127.39499664306638 L -159.4969940185547 -128.89399719238278 L -159.55258178710938 -129.03153991699216 M -142.55258178710938 -87.37355804443358 L -142.4969940185547 -87.39600372314452 L -149.9360809326172 -105.80658721923825 L -149.99200439453125 -105.94499969482419 L -153.7030029296875 -104.44599914550778 L -153.64706420898438 -104.30759429931638 L -153.7030029296875 -104.28500366210935 L -146.20700073242188 -85.73699951171874 L -142.4969940185547 -87.23600006103514 L -142.55258178710938 -87.37355804443358 M -124.85258483886719 -43.39455795288085 L -124.7969970703125 -43.416999816894524 L -132.23606872558594 -61.8275909423828 L -132.29200744628906 -61.96599960327147 L -136.0030059814453 -60.466999053955064 L -135.9470672607422 -60.32859420776366 L -136.0030059814453 -60.30599975585936 L -128.5070037841797 -41.75799942016601 L -124.7969970703125 -43.256999969482415 L -124.85258483886719 -43.39455795288085 M 118.93099975585938 88.37799835205077 L 117.4000015258789 92.07499694824217 L 135.8820037841797 99.73200225830075 L 137.41299438476562 96.03500366210935 L 118.93099975585938 88.37799835205077 M 75.15699768066406 70.17700195312499 L 73.625 73.87400054931639 L 92.10800170898438 81.53099822998045 L 93.63899993896484 77.83399963378905 L 75.15699768066406 70.17700195312499 M 52.01100158691406 60.76100158691405 L 33.52899932861328 53.10400009155272 L 31.99799919128418 56.800998687744126 L 50.47999954223633 64.45800018310545 L 52.01100158691406 60.76100158691405 M 13.413000106811523 44.74599838256835 L -5.068999767303467 37.08900070190429 L -6.599999904632568 40.785999298095696 L 11.881999969482422 48.44300079345702 L 13.413000106811523 44.74599838256835 M -30.361000061035156 26.84600067138671 L -48.84299850463867 19.188999176025387 L -50.375 22.885999679565426 L -31.892000198364258 30.542999267578118 L -30.361000061035156 26.84600067138671 M -71.98899841308594 9.371999740600584 L -90.47100067138672 1.7150000333786006 L -92.00299835205078 5.4130001068115225 L -73.5199966430664 13.069999694824215 L -71.98899841308594 9.371999740600584 M 157 224.99999999999994 L 193.0590057373047 224.99999999999994 L 193.0590057373047 188.99999999999997 L 157 188.99999999999997 L 157 224.99999999999994 M 197.0590057373047 188.99999999999997 L 197.0590057373047 224.99999999999994 L 233.04600524902344 224.99999999999994 L 233.04600524902344 188.99999999999997 L 197.0590057373047 188.99999999999997 M 237.04600524902344 188.99999999999997 L 237.04600524902344 224.99999999999994 L 273.0150146484375 224.99999999999994 L 273.0150146484375 188.99999999999997 L 237.04600524902344 188.99999999999997 M 277.0150146484375 188.99999999999997 L 277.0150146484375 224.99999999999994 L 312.9809875488281 224.99999999999994 L 312.9809875488281 188.99999999999997 L 277.0150146484375 188.99999999999997 M 157 184.99999999999997 L 193.0590057373047 184.99999999999997 L 193.0590057373047 148.99999999999997 L 157 148.99999999999997 L 157 184.99999999999997 M 197.0590057373047 148.99999999999997 L 197.0590057373047 184.99999999999997 L 233.04600524902344 184.99999999999997 L 233.04600524902344 148.99999999999997 L 197.0590057373047 148.99999999999997 M 237.04600524902344 148.99999999999997 L 237.04600524902344 184.99999999999997 L 273.0150146484375 184.99999999999997 L 273.0150146484375 148.99999999999997 L 237.04600524902344 148.99999999999997 M 277.0150146484375 148.99999999999997 L 277.0150146484375 184.99999999999997 L 312.9809875488281 184.99999999999997 L 312.9809875488281 148.99999999999997 L 277.0150146484375 148.99999999999997 M 157 144.99999999999997 L 193.0590057373047 144.99999999999997 L 193.0590057373047 108.99999999999997 L 157 108.99999999999997 L 157 144.99999999999997 M 197.0590057373047 108.99999999999997 L 197.0590057373047 144.99999999999997 L 233.04600524902344 144.99999999999997 L 233.04600524902344 108.99999999999997 L 197.0590057373047 108.99999999999997 M 237.04600524902344 108.99999999999997 L 237.04600524902344 144.99999999999997 L 273.0150146484375 144.99999999999997 L 273.0150146484375 108.99999999999997 L 237.04600524902344 108.99999999999997 M 277.0150146484375 108.99999999999997 L 277.0150146484375 144.99999999999997 L 312.9809875488281 144.99999999999997 L 312.9809875488281 108.99999999999997 L 277.0150146484375 108.99999999999997 z"
     fill="none"
     stroke="rgb(255,0,0)"
     stroke-width="0.001mm"
     id="path1"
     style="fill:none;fill-opacity:1;stroke:#ff0000;stroke-opacity:1;stroke-width:0.25;stroke-dasharray:none" />
</svg>
