<?xml version="1.0" encoding="UTF-8" standalone="no"?>
<svg
   width="726.531005859375mm"
   height="501.9999999999999mm"
   viewBox="-377 -250.99999999999994 726.531005859375 501.9999999999999"
   version="1.1"
   id="svg1"
   sodipodi:docname="ATM-2.svg"
   inkscape:version="1.3.2 (091e20e, 2023-11-25, custom)"
   xmlns:inkscape="http://www.inkscape.org/namespaces/inkscape"
   xmlns:sodipodi="http://sodipodi.sourceforge.net/DTD/sodipodi-0.dtd"
   xmlns="http://www.w3.org/2000/svg"
   xmlns:svg="http://www.w3.org/2000/svg">
  <defs
     id="defs1" />
  <sodipodi:namedview
     id="namedview1"
     pagecolor="#ffffff"
     bordercolor="#000000"
     borderopacity="0.25"
     inkscape:showpageshadow="2"
     inkscape:pageopacity="0.0"
     inkscape:pagecheckerboard="0"
     inkscape:deskcolor="#d1d1d1"
     inkscape:document-units="mm"
     inkscape:zoom="0.32265771"
     inkscape:cx="1245.9023"
     inkscape:cy="829.05193"
     inkscape:window-width="1920"
     inkscape:window-height="1001"
     inkscape:window-x="-9"
     inkscape:window-y="-9"
     inkscape:window-maximized="1"
     inkscape:current-layer="svg1" />
  <title
     id="title1">svgOutput</title>
  <desc
     id="desc1">made with tinkercad</desc>
  <path
     d="M 133 245.69799804687494 L 133 207.99999999999994 L 133 186.6790618896484 L 133 153.99999999999997 L 133 150.99999999999997 L 133 86.99999999999999 L 133 80.99999999999999 L 133 50.999999999999986 L 133 40.99999999999999 L 133 10.999999999999998 L 133 0.9999999999999999 L 133 -26.999999999999993 L 133 -32.99999999999999 L 133 -119.99999999999997 L 133 -245.84800720214838 L 136 -245.84800720214838 L 137.9739990234375 -245.84800720214838 L 158.1510009765625 -245.84800720214838 L 158.1510009765625 -248.99999999999994 L 158.1510009765625 -249.99999999999994 L 178.15699768066406 -249.99999999999994 L 178.15699768066406 -248.99999999999994 L 178.15699768066406 -245.84800720214838 L 203.14500427246094 -245.84800720214838 L 203.14500427246094 -248.99999999999994 L 203.14500427246094 -249.99999999999994 L 223.14999389648438 -249.99999999999994 L 223.14999389648438 -248.99999999999994 L 223.14999389648438 -245.84800720214838 L 250.552001953125 -245.84800720214838 L 250.552001953125 -248.99999999999994 L 250.552001953125 -249.99999999999994 L 270.5570068359375 -249.99999999999994 L 270.5570068359375 -248.99999999999994 L 270.5570068359375 -245.84800720214838 L 297.97900390625 -245.84800720214838 L 299 -245.84800720214838 L 305 -245.84800720214838 L 305 -119.99999999999997 L 305 -32.99999999999999 L 305 -26.999999999999993 L 305 0.9999999999999999 L 305 10.999999999999998 L 305 40.99999999999999 L 305 50.999999999999986 L 305 80.99999999999999 L 305 86.99999999999999 L 305 98.06230163574216 L 305 98.06243133544919 L 305 150.99999999999997 L 305 153.99999999999997 L 305 207.99999999999994 L 305 245.69799804687494 L 299 245.69799804687494 L 270.70599365234375 245.69799804687494 L 270.70599365234375 249.99999999999994 L 250.7010040283203 249.99999999999994 L 250.552001953125 249.99999999999994 L 250.552001953125 245.69799804687494 L 223.2989959716797 245.69799804687494 L 223.2989959716797 249.99999999999994 L 203.29400634765625 249.99999999999994 L 203.14500427246094 249.99999999999994 L 203.14500427246094 245.69799804687494 L 178.30499267578125 245.69799804687494 L 178.30499267578125 249.99999999999994 L 158.3000030517578 249.99999999999994 L 158.1510009765625 249.99999999999994 L 158.1510009765625 245.69799804687494 L 137.9739990234375 245.69799804687494 L 136 245.69799804687494 L 133 245.69799804687494 M -374 207.99999999999994 L -374 153.99999999999997 L -177 153.99999999999997 L -177 207.99999999999994 L -374 207.99999999999994 M -376 150.99999999999997 L -376 -5.115319252014159 L -376 -57.401943206787095 L -376 -119.99999999999997 L -376 -248.99999999999994 L -210.03431701660156 -248.99999999999994 L -173.3186492919922 -248.99999999999994 L -119.9151840209961 -248.99999999999994 L 131 -248.99999999999994 L 131 -232.52000427246088 L 131 -212.51499938964838 L 131 -147.61944580078122 L 131 -126.0421447753906 L 131 -119.99999999999997 L 131 -99.09271240234372 L 131 -77.57403564453124 L 131 -47.962146759033196 L 131 -32.99999999999999 L 131 -26.999999999999993 L 131 -26.448242187499993 L 131 0.9999999999999999 L 131 10.999999999999998 L 131 40.99999999999999 L 131 50.999999999999986 L 131 80.99999999999999 L 131 86.99999999999999 L 131 150.99999999999997 L -44.43128967285156 150.99999999999997 L -66.08334350585938 150.99999999999997 L -93.21340942382812 150.99999999999997 L -114.9230728149414 150.99999999999997 L -144.4569091796875 150.99999999999997 L -166.1098175048828 150.99999999999997 L -189.68702697753906 150.99999999999997 L -211.33993530273438 150.99999999999997 L -238.3423309326172 150.99999999999997 L -260.0382080078125 150.99999999999997 L -289.6966857910156 150.99999999999997 L -311.3495788574219 150.99999999999997 L -376 150.99999999999997 M 307 -248.99999999999994 L 307 -249.99999999999994 L 307.1144104003906 -249.99999999999994 L 307.8636169433594 -249.99999999999994 L 347 -249.99999999999994 L 347 -119.99999999999997 L 307.500732421875 -119.99999999999997 L 307.485595703125 -119.99999999999997 L 307 -119.99999999999997 L 307 -248.99999999999994 M 307.0174560546875 40.99999999999999 L 307.0206298828125 39.90479660034179 L 307.10467529296875 10.999999999999998 L 307.1337585449219 0.9999999999999999 L 307.2151794433594 -26.999999999999993 L 307.2326354980469 -32.99999999999999 L 307.47650146484375 -116.86924743652341 L 307.5100402832031 -116.86935424804685 L 312.42315673828125 -116.8843078613281 L 347.5254211425781 -116.99201965332028 L 347.5254211425781 -116.99201965332028 L 347.5254211425781 -116.99113464355466 L 347.4766540527344 -100.25038146972653 L 347.05291748046875 45.20281600952148 L 307.9920349121094 45.32169342041015 L 307.0048828125 45.324695587158196 L 307.0048522949219 45.32469940185546 L 307.0174560546875 40.99999999999999 M 347.04443359375 48.11699295043944 L 348.0480041503906 48.11999893188475 L 348.531005859375 210.313003540039 L 308.48199462890625 210.19400024414057 L 308.4754943847656 207.99999999999994 L 308.31500244140625 153.99999999999997 L 308.30609130859375 150.99999999999997 L 308.1439514160156 96.4426574707031 L 308.1439514160156 96.44248962402341 L 308 47.999999999999986 L 347.04443359375 48.11699295043944 M 30.99799919128418 -66.82640838623045 L 30.99799919128418 -59.51499938964842 L 35.00299835205078 -59.51499938964842 L 35.00299835205078 -65.20929718017577 L 35.00299835205078 -79.51999664306639 L 30.99799919128418 -79.51999664306639 L 30.99799919128418 -66.82640838623045 M 35.00299835205078 -116.33508300781247 L 35.00299835205078 -119.99999999999997 L 35.00299835205078 -127.51999664306638 L 30.99799919128418 -127.51999664306638 L 30.99799919128418 -119.99999999999997 L 30.99799919128418 -117.95220184326169 L 30.99799919128418 -107.51499938964841 L 35.00299835205078 -107.51499938964841 L 35.00299835205078 -116.33508300781247 M 30.99799919128418 -166.44726562499997 L 30.99799919128418 -161.5149993896484 L 35.00299835205078 -161.5149993896484 L 35.00299835205078 -164.82907104492185 L 35.00299835205078 -181.5200042724609 L 30.99799919128418 -181.5200042724609 L 30.99799919128418 -166.44726562499997 M 297.97900390625 50.999999999999986 L 137.9739990234375 50.999999999999986 L 137.9739990234375 80.99999999999999 L 297.97900390625 80.99999999999999 L 297.97900390625 50.999999999999986 M 297.97900390625 10.999999999999998 L 137.9739990234375 10.999999999999998 L 137.9739990234375 40.99999999999999 L 297.97900390625 40.99999999999999 L 297.97900390625 10.999999999999998 M 297.97900390625 -26.999999999999993 L 137.9739990234375 -26.999999999999993 L 137.9739990234375 0.9999999999999999 L 297.97900390625 0.9999999999999999 L 297.97900390625 -26.999999999999993 M -157.01100158691406 -68.62799835205077 L -155.47999572753906 -64.93000030517577 L -136.9980010986328 -72.58699798583983 L -138.5290069580078 -76.28500366210936 L -157.01100158691406 -68.62799835205077 M -198.63900756835938 -51.15399932861327 L -197.10800170898438 -47.45700073242187 L -178.625 -55.11399841308592 L -180.15699768066406 -58.811000823974595 L -198.63900756835938 -51.15399932861327 M -242.41299438476562 -33.25400161743163 L -240.8820037841797 -29.55699920654296 L -222.39999389648438 -37.21400070190429 L -223.93099975585938 -40.910999298095696 L -242.41299438476562 -33.25400161743163 M -281.010986328125 -17.239000320434567 L -279.4800109863281 -13.541999816894528 L -260.99798583984375 -21.198999404907223 L -262.52899169921875 -24.89599990844726 L -281.010986328125 -17.239000320434567 M -322.6390075683594 -0.16599999368190752 L -321.1080017089844 3.5309998989105216 L -302.625 -4.125999927520751 L -304.1570129394531 -7.822999954223631 L -322.6390075683594 -0.16599999368190752 M -347.9309997558594 10.378000259399412 L -366.4129943847656 18.034999847412106 L -364.8819885253906 21.732000350952145 L -346.3999938964844 14.074999809265133 L -347.9309997558594 10.378000259399412 M -100.49299621582031 -119.91899871826169 L -100.46026611328125 -119.99999999999997 L -92.99800109863281 -138.46699523925778 L -96.70800018310547 -139.96600341796872 L -104.2030029296875 -121.4169998168945 L -100.69361114501953 -119.99999999999997 L -100.49299621582031 -119.91899871826169 M -79.00800323486328 -183.94500732421872 L -86.50299835205078 -165.39599609374997 L -82.79299926757812 -163.89799499511716 L -75.2979965209961 -182.44599914550778 L -79.00800323486328 -183.94500732421872 M -69.50299835205078 -207.05400085449213 L -65.79299926757812 -205.5549926757812 L -58.29800033569336 -224.10400390624994 L -62.007999420166016 -225.60299682617182 L -69.50299835205078 -207.05400085449213 M 30.99799919128418 -232.52000427246088 L 30.99799919128418 -212.51499938964838 L 35.00299835205078 -212.51499938964838 L 35.00299835205078 -232.52000427246088 L 30.99799919128418 -232.52000427246088 z"
     fill="none"
     stroke="rgb(255,0,0)"
     stroke-width="0.001mm"
     id="path1"
     style="stroke:#ff0000;stroke-opacity:1;stroke-width:0.25;stroke-dasharray:none" />
</svg>
