<?xml version="1.0" encoding="UTF-8" standalone="no"?>
<svg
   width="271.5mm"
   height="286.99999999999994mm"
   viewBox="-291.5 -294.99999999999994 271.5 286.99999999999994"
   version="1.1"
   id="svg1"
   sodipodi:docname="TafelPoten.svg"
   inkscape:version="1.3.2 (091e20e, 2023-11-25, custom)"
   xmlns:inkscape="http://www.inkscape.org/namespaces/inkscape"
   xmlns:sodipodi="http://sodipodi.sourceforge.net/DTD/sodipodi-0.dtd"
   xmlns="http://www.w3.org/2000/svg"
   xmlns:svg="http://www.w3.org/2000/svg">
  <defs
     id="defs1" />
  <sodipodi:namedview
     id="namedview1"
     pagecolor="#ffffff"
     bordercolor="#000000"
     borderopacity="0.25"
     inkscape:showpageshadow="2"
     inkscape:pageopacity="0.0"
     inkscape:pagecheckerboard="0"
     inkscape:deskcolor="#d1d1d1"
     inkscape:document-units="mm"
     inkscape:zoom="0.72552991"
     inkscape:cx="512.72869"
     inkscape:cy="542.3622"
     inkscape:window-width="1920"
     inkscape:window-height="1001"
     inkscape:window-x="-9"
     inkscape:window-y="-9"
     inkscape:window-maximized="1"
     inkscape:current-layer="svg1" />
  <title
     id="title1">svgOutput</title>
  <desc
     id="desc1">made with tinkercad</desc>
  <path
     d="M -120 -293.99999999999994 L -90 -293.99999999999994 L -90 -8.999999999999998 L -120 -8.999999999999998 L -120 -293.99999999999994 M -221.5 -293.99999999999994 L -191.5 -293.99999999999994 L -191.5 -8.999999999999998 L -221.5 -8.999999999999998 L -221.5 -293.99999999999994 M -187.5 -293.99999999999994 L -157.5 -293.99999999999994 L -157.5 -8.999999999999998 L -187.5 -8.999999999999998 L -187.5 -293.99999999999994 M -256.5 -293.99999999999994 L -226.5 -293.99999999999994 L -226.5 -8.999999999999998 L -256.5 -8.999999999999998 L -256.5 -293.99999999999994 M -290.5 -293.99999999999994 L -260.5 -293.99999999999994 L -260.5 -8.999999999999998 L -290.5 -8.999999999999998 L -290.5 -293.99999999999994 M -154 -293.99999999999994 L -124 -293.99999999999994 L -124 -8.999999999999998 L -154 -8.999999999999998 L -154 -293.99999999999994 M -85 -293.99999999999994 L -55 -293.99999999999994 L -55 -8.999999999999998 L -85 -8.999999999999998 L -85 -293.99999999999994 M -51 -293.99999999999994 L -21 -293.99999999999994 L -21 -8.999999999999998 L -51 -8.999999999999998 L -51 -293.99999999999994 z"
     fill="none"
     stroke="rgb(255,0,0)"
     stroke-width="0.001mm"
     id="path1"
     style="stroke:#ff0000;stroke-opacity:1;stroke-width:0.25;stroke-dasharray:none" />
</svg>
